<svg xmlns="http://www.w3.org/2000/svg" viewBox="0 0 260 260"><defs><style>.cls-1{fill:#237aba}</style></defs><title>3</title><g id="icons"><path class="cls-1" d="M218.43 203.88a65.48 65.48 0 1 0-14.55 14.55L245.45 260 260 245.45zm-23.88-38.43a29.09 29.09 0 0 0-29.09-29.09v-14.54a43.64 43.64 0 0 1 43.64 43.64z"/><path class="cls-1" d="M100.27 220H56a6 6 0 0 1-6-6V36a6 6 0 0 1 6-6h138a6 6 0 0 1 6 6v51.57a85.2 85.2 0 0 1 20 12.7V16a6 6 0 0 0-6-6H36a6 6 0 0 0-6 6v218a6 6 0 0 0 6 6h89.05a85.55 85.55 0 0 1-24.78-20z"/></g></svg>